<svg version="1" xmlns="http://www.w3.org/2000/svg" width="613.333" height="613.333" viewBox="0 0 460.000000 460.000000"><path d="M0 230v230h460v-97.1c0-95.4-.1-97-1.9-94.7-1.4 1.6-1.6 2.5-.8 3s.4.8-.9.8-2.8 1.4-4.3 4c-1.2 2.2-2.6 4-3 4-.4 0-1.4 1.1-2.1 2.5-1.6 3-4 3.3-4 .5 0-1.3-.7-2-2-2s-1.8-.5-1.4-1.5c.4-.8.1-1.5-.5-1.5s-1.1.5-1.1 1.1c0 .7-1 .9-2.5.5-1.9-.5-2.3-.3-1.9.9.6 1.4-1.6 4.5-3.2 4.5-.5 0-.3-.5.4-1.2 1.8-1.8 1.5-2.8-.8-2.8-1.3 0-2.8 1.3-4.1 3.5-1.2 1.9-2.7 3.5-3.4 3.5-.7 0-1.5.5-1.7 1.1-.2.6-1.3 1-2.3.8-1.9-.4-1.9-.5.3-2.7 1.2-1.2 1.8-2.2 1.2-2.2-.5 0-1-.6-1-1.4 0-.7-.7-2.7-1.5-4.2-.9-1.7-1.5-2.2-1.5-1.3 0 3-2.3 3.9-4.9 1.8-2-1.7-2.2-2.1-1-3.7.7-.9 1.5-1.9 1.6-2.1.1-.2.9.2 1.8.9 1.3 1.1 1.5.9 1.3-1.1-.2-1.3-1.1-2.7-2.1-3.1-1.3-.6-1.6-1.4-1.2-2.8.4-1.2.2-2-.6-2s-.7-.5.2-1.7c.8-.9 1.4-2.7 1.4-4 .1-1.8-.4-2.2-2-2-1.1.1-2.5.5-3 .9-1.6 1-.5-6.2 1.3-9.1 1.6-2.3 1.5-2.3-.8-1.7-1.9.6-2.1.5-1-.3.8-.6 1.1-1.1.5-1.1-.5 0 .9-1.8 3-4s3.6-4 3.1-4c-1.2 0-5 2.2-5.8 3.4-.6.8-1.1.6-1.7-.4-.6-.8-.6-1.9-.1-2.5 1.1-1.3.2-5.5-1.2-5.5-.7 0-.8-1.6-.4-4.1.4-2.5.3-3.8-.3-3.5-1.6 1-2.5-1.6-.9-2.8 1.4-1 3.4-6.6 2.4-6.6-.3 0-1.1.6-1.8 1.4-1.2 1.1-1.4.4-1.5-4.5-.1-3.5.3-6.4 1.1-7.1.7-.7 1.5-2.2 1.9-3.3.5-1.4 0-1.1-1.7.9-3 3.6-5.6 4.2-5.6 1.5 0-1.1.4-1.8.9-1.5 1 .7 2.2-1.7 2.8-5.4.2-1.4 1.4-3.6 2.6-4.9 1.2-1.3 1.7-2.1 1-1.7-.6.3-1.4.2-1.8-.4-.3-.5-.1-1 .6-1s1-.3.6-.6c-.3-.3-1.6.2-2.9 1.1-1.5 1.1-1.7 1.5-.5 1.2 1.1-.4 1.7-.1 1.7.8 0 .8-.4 1.5-.8 1.5-.5 0-1.5 1.1-2.2 2.5-1.9 3.5-3.3 2-2.6-2.8.4-2.3.3-3.8-.1-3.3-.4.4-.8 1.1-.9 1.4 0 .4-.8 2.3-1.7 4.3-.8 1.9-1.9 4.7-2.2 6.1-.4 1.5-1.4 2.9-2.2 3.2-1.3.5-1.3.3.1-1.9 1-1.5 1.5-3.2 1.2-3.8-.2-.7-.5-.4-.5.5-.1 1-.5 1.8-1.1 1.8-1.2 0-1.3-2.3-.1-3.6.5-.5 1.2-2 1.6-3.4.7-2.3.6-2.4-.9-1-1.6 1.2-1.8 1.2-1.6-.1.4-2.8 0-3.8-1.5-3.3-.8.4-1.5 1.4-1.5 2.3 0 .9-.9 2.7-2 4.1-2.6 3.3-2.6 4.8 0 2.5 2.7-2.5 3.4-1.4 1.9 3-1.3 3.4-1.4 3.5-2.2 1.3-.9-2.2-.9-2.2-1.7-.3-.8 1.9-.9 1.9-.9.1-.1-1.5-.4-1.7-1.3-.8-.9.9-.8 2.1.2 5.2 1.3 3.9 1.2 4.2-1 6.3-2.2 2.1-2.3 1.9-.4-2.7.6-1.5.4-1.7-.7-1.1-1 .6-1.1.5-.4-.3.6-.7.9-3 .7-5.2-.3-3.3-.7-3.9-1.8-2.9-.8.6-1.4 1.8-1.4 2.5 0 .8-.6 1.1-1.5.8-.8-.4-1.5-1.5-1.5-2.5 0-2.5-1.6-2.4-2.3.1-.3 1.2-1.4 2-2.6 2-2.5 0-2.5.1-.6-3.7 1.3-2.6 1.3-3.6.3-5.9-1-2.2-1-2.8 0-3.2.7-.2 1-.8.6-1.3-1.1-1.8-2.4-.8-2.5 1.8-.2 2.7-.2 2.7-.6.3l-.5-2.4-1.5 2.4c-1.4 2.4-1.4 2.4-1-1.6.3-2.6-.1-4.7-1.1-6-1.2-1.6-1.4-1.6-.9-.2.5 1.5 0 1.8-2.8 1.8-3.8 0-4.5-1.5-1.7-3.6 1.5-1.2 1.3-1.3-1.2-.4-2.3.8-3.2.7-4.6-.5-1.7-1.5-1.9-1.5-2.8.1-1 1.8-2.4 2.3-7.7 2.8-4.4.5-5.8-.3-4-2.1 1.6-1.5 2-3.3.8-3.3-.4 0-1.7 1-3 2.2-2.8 2.7-3.4 2.1-3.5-3.3v-4.3l-1.5 2.8c-.8 1.5-1.2 3.4-.9 4.2 1 2.7-2.4 1.4-4.3-1.6-1-1.6-2.1-2.7-2.4-2.3-1.1 1-.8 2.5.3 1.8.6-.3 1-.1 1 .4 0 .6-.5 1.1-1 1.1-1.3 0-.1 5.2 1.3 6.2.6.4.4 1.3-.6 2.3-1 .9-1.7 1.1-1.7.5 0-.7-.6-.5-1.6.4-2.1 2.1-2.3 2-1.7-.7.4-1.8.3-1.9-.6-.7-.9 1.3-1.1 1.3-1.1-.3 0-.9-.4-1.7-1-1.7-.5 0-1-.5-1-1.1 0-.5.4-.7 1-.4.6.4.9-.7.9-2.7-.1-2.3-.3-2.6-.6-1.1-.2 1.3-.9 2.3-1.4 2.3-.5 0-.9 1.1-.9 2.5s.5 2.5 1.2 2.5c1.6 0 .1 1.3-1.9 1.6-2.6.4-3.5-.6-2.1-2.4 1.2-1.6 1.1-1.6-1.1-.1-2.4 1.5-4.6 4.9-2.3 3.5.6-.3 1.3-.2 1.6.2.3.5 1.7.7 3.1.4 1.9-.3 2.5 0 2.5 1.2 0 1-.4 1.5-.8 1.2-.5-.3-.9.1-.9.9s.4 1.5.9 1.5.7.4.3.9c-.3.6-2 .5-4.3-.3-2-.7-4.3-1.1-5.1-.8-1 .3-1.2-.1-.9-1.6.5-1.9.3-2-2.6-1.5-1.7.3-3.4 1-3.7 1.6-.4.5-1.4.5-2.7-.2-1.1-.6-2.7-1.1-3.4-1.1-.7.1.2.7 2 1.5 2.4 1.1 3.2 2 3.2 4 0 2.9 1.2 3.2 3.4.9 1.5-1.4 1.6-1.4 1.6.5 0 1.6-.6 2.1-2.7 2.1-4.3 0-5.9 1.6-1.8 1.7 1.9.1 4.2.8 5 1.7 1.5 1.5 1.4 1.6-.7 1.6-1.8 0-2 .2-.8 1 .8.5 2.5 1 3.7 1 1.2 0 2.9.7 3.7 1.6.9.8 1.6 1.1 1.6.6 0-.5.8-1.2 1.8-1.6.9-.3 2.3-.9 3-1.2 1.5-.7 1.7 6.2.2 7.1-.5.3-1 .1-1-.4 0-.6-.4-1.1-.8-1.1-.5 0-.7 1.3-.4 3 .2 1.7 1 3 1.8 3 2.5 0 1.5 1.5-1.8 2.9-2.7 1.1-2.9 1.4-1.4 1.8 1 .3 2.2 0 2.6-.7.6-.9.9-.9 1.3.1s.6 1 .6.1c.2-2.6 4.1 1.3 5.2 5 .7 2.6 1.4 3.6 2.4 3.2.9-.4 1.5 0 1.6.7 0 .8.4.4.9-.9.5-1.2.7-2.9.4-3.7-.4-.8-.1-1.5.4-1.5 1.7 0 2.5 2 1.3 3.4-.6.7-.8 1.6-.4 2 .4.4.6 2.4.4 4.4-.1 2 0 3.4.3 3.1.3-.3.7-1.8.8-3.2.3-3.2 1.3-3.5 2.8-.7.7 1.4.7 2 0 2-.5 0-1 .5-1 1.1 0 .5.4.7 1 .4 1.1-.7 2.3 3.4 1.8 6.6-.2 1.3-.7 2.2-1.3 1.9-.5-.3-.9-1-.7-1.5.2-.6-.2-.4-.9.2-1.4 1.4-3.3 1.8-2.5.5.2-.4.1-1.4-.4-2.2-.9-1.5-1.1-1.2-2.6 3.8-.2.6-1.4 1.2-2.6 1.2-2 .1-2.1.2-.8 1.3.8.7 1.4 2.3 1.3 3.7-.3 2.5-.3 2.5.7.2 1-2.4 2.3-3.1 1.4-.7-.4.8-.2 1.5.4 1.5 1.8 0 2 5.3.3 10.4-.9 2.8-2.2 5-2.9 4.9-.6-.2-.9.4-.5 1.3.3.9 1.3 1.4 2.4 1.1 2.1-.6 2.7 1.9.7 2.5-.7.3-1.2 2.1-1.2 4.1 0 2.2-.3 3.2-.8 2.4-.4-.6-.8-.8-.8-.3s-.6.3-1.4-.3c-1.3-1.1-4.6-.6-4.6.8.1.3.7 1.7 1.5 3.1 1.1 1.9 1.4 2.1 1.5.7 0-1.8 2.5-2.4 3.4-.8.8 1.3-.4 4.2-1.5 3.5-.5-.3-.9.3-.9 1.3-.1 1.7-.1 1.7-1.1 0-1.3-2.2-2.6-2.2-3.2 0-.2 1-.3.5-.1-1 .2-1.5 0-3.6-.5-4.5-.5-.9-1.4-3.3-2-5.2-.8-2.5-.9-2.7-.5-.6.3 1.7 0 3.2-.7 3.6-.8.6-.6 2.2.9 6.2 1.3 3.5 1.7 5.9 1.1 6.9-.6 1-.9.7-.9-1.4 0-1.6-.4-2.6-.8-2.3-.5.3-.5 3.1-.1 6.3.5 3.5.4 6.2-.2 6.7-.5.6-.9.6-.9.1s-.7 0-1.5 1.1c-.8 1-1.5 2.9-1.5 4.2 0 1.3-.4 2.1-.9 1.8-.5-.4-1.2 0-1.4.6-.4.8-.6.7-.6-.4-.1-1.4-.8-1.6-3.8-1.1-2.1.3-4 .8-4.3 1-.2.2.4 1.9 1.4 3.8 1.5 2.7 1.6 3.8.7 4.9-.8.9-.8 1.6-.2 2 .5.4 1.3.1 1.6-.5.4-.5 1.3-.8 2.1-.5.7.3 1.8-.3 2.3-1.2.9-1.5 1-1.5 1.1.3 0 2.2-3.5 4.9-5 4-.5-.3-1.2.7-1.5 2.2-.3 1.5-1 4.1-1.4 5.8l-.9 3-.7-3.3c-1-4.1-2.1-4.9-3.1-2-.4 1.3-.2 2.4.4 2.6 1.3.4.4 3.2-1 3.2-.6 0-.8-.7-.4-1.5.6-1.6-1.7-1.6-5.7 0-.9.4-2.4.2-3.2-.5-.8-.7-1.5-.9-1.5-.4s-.4.4-.8-.1c-.6-.9-3.6-2.7-10.4-6.2-1.6-.8-2.8-2.1-2.8-2.8 0-2.3-7.5-9.5-9.9-9.5-1.1 0-4-1.8-6.4-4-11.7-11.2-20.4-18.3-26.5-21.7-3.7-2.1-7.6-4.4-8.7-5-5.2-3.2-18.3-9.3-21.1-9.9-3-.6-3.2-.4-6.9 7-3.3 6.7-4.1 7.5-5.9 6.9-1.2-.3-3.2-.6-4.6-.5-2.8.1-6.8-3-8.8-6.9-1-1.9-1.1-3.5-.3-6.9 1.2-5 1.4-11 .5-11-.3 0-2.8 2-5.4 4.3-3.5 3.1-7.4 5.3-13.7 7.6-4.8 1.8-10.6 3.9-12.8 4.7-5.1 1.8-6.4 2.9-9.7 8-2.9 4.5-6.5 5.9-11.6 4.5-7.7-2.3-11.7-6.2-15.8-15.6-2-4.7-3.4-6.5-4.7-6.5-2.2 0-10.8-6.8-10.6-8.4.1-.6-.1-1.9-.5-2.9-.5-.9-.5-2.5-.1-3.5.5-.9.7-2.4.6-3.3-.1-.8.8-2.4 1.9-3.4 1.8-1.6 2.3-1.7 3-.5.7 1.1 1 .6 1.1-2l.1-3.5 1.3 3 1.4 3 .1-3c0-2.1.3-2.6.9-1.6 1.6 2.5 2.3-23.8 1.2-45.6-.8-17.1-1.5-22.4-3.1-27-1.2-3.2-2.3-6.5-2.6-7.4-.8-2.5 2.1-3 7-1.4 2.4.8 6.4 1.8 8.9 2.1 4.1.6 4.5.9 5.3 4.3.8 3.3 1.2 3.6 4.2 3.4 1.8 0 4.1-.8 5.1-1.7 1.3-1.2 2-1.3 2.9-.4.9.9 1.8.9 3.8-.1 1.5-.6 2.7-1 2.8-.9 3.3 5.5 3.6 5.7 6.8 5.2 2.5-.4 4.2.1 6.9 1.9 6.1 4.2 7.5 4.2 8.3.6.4-2.2.1-3.8-.8-4.8-.8-.9-1.2-2.7-.9-4.2.4-2.2 0-2.7-2.1-3.3-1.4-.3-2.6-1.2-2.7-1.9-.6-8.2 1.9-16.9 6.3-21.5 4-4.2 5.1-7.3 3.8-10.8-1.1-2.9-2.9-3-7.2-.4-6.6 4-9.4 1.9-4.7-3.4 4.4-5.1 2.9-4.4-2.9 1.3-4.8 4.5-31.9 21.1-34.7 21.1-1.9 0-2.7-4.7-1.3-7 .7-1 7.1-4.8 14.3-8.4 15.4-7.6 17.6-9.2 15.6-10.5-.8-.5-1.2-1.9-.9-3.5.3-1.4.1-2.6-.3-2.6-.5 0-.9-.7-.9-1.5 0-1.9-.2-1.9-4.6.6-3 1.6-3.9 1.8-4.5.7-.5-.7-2.1-1.4-3.6-1.6-5.6-.5-6.3-.6-6.3-1.5 0-1-7.6.1-10.1 1.3-.8.5-2.2.4-3-.1-1.1-.7-1.1-.9.4-.9.9 0 1.7-.7 1.7-1.5 0-1.8-.5-1.9-3.3-.3-5.4 3-8.9 3.7-11.1 2.2-1.5-1-3.7-1.3-8.1-.9-11.9 1.2-12.2 1.3-14.8 5.8-3.1 5.3-9.1 11.7-11 11.7-7.3 0-16.9-22.7-19.7-46.5-1.4-12-2.7-19-6-31.5-1.5-5.8-3.5-14-4.5-18.3-.9-4.3-2.3-9.3-3-11-.7-1.8-1.7-8.5-2-15L16.7 0H0v230zm132.4-84c-2.3 2.2-5.5 2.9-6.1 1.4-.4-1.3 5.7-4.5 7-3.7.5.3.1 1.4-.9 2.3zm-11 7.5c-.4.8-1 1.2-1.5.9-1.4-.8-1-2.4.6-2.4.9 0 1.2.6.9 1.5zm203.6 32c.7.8 1.1 1.5.9 1.6-3.1.6-4 .6-4.5-.2-.6-1 .3-2.9 1.5-2.9.5 0 1.4.7 2.1 1.5zm21.5 2.6c.8 1.2-2.3 4.9-4.2 4.9-1.9 0-1.6-3.7.5-4.9 2.2-1.3 2.9-1.3 3.7 0zm4-.1c-.3.5-1.2 1-1.8 1-.7 0-.6-.4.3-1 1.9-1.2 2.3-1.2 1.5 0zm-25.2 3.4c-1.7 2.3-4.1 3.8-2.9 1.7.4-.5.3-1.1-.1-1.4-.5-.2-.2-.2.5-.1.7.2 1.8-.5 2.4-1.6.7-1 1.4-1.7 1.6-1.5.2.2-.4 1.5-1.5 2.9zm6.5-2.2c-.3.7-1.2 1.4-2.2 1.4-1.3.2-1.3.1-.1-.3.8-.2 1.3-.9 1-1.4-.4-.5-.1-.9.5-.9.7 0 1 .6.8 1.2zm6.2-.2c0-1.7 1.3-.4 1.6 1.5.3 2.2-1 1.8-3.2-.7-1.5-1.9-1.6-2-.1-.9 1.3 1.1 1.7 1.1 1.7.1zm21 1.5c1 1.2 1 1.9.2 2.7-.9.9-1.2.8-1.2-.5 0-1.5-.4-1.6-2-.7-1.1.6-2 1.7-2 2.5s-.9 1.9-2.1 2.5c-1.6.9-1.8 1.4-.8 2.6.9 1.1.8 1.4-.4 1.4-.8 0-1.8-.6-2.1-1.3-.3-.8-.9-.6-2 .7-2 2.5-2.1 5-.1 4.2 1.9-.7 1.9.5 0 3-.8 1-1.5 2.7-1.5 3.7 0 1.5.4 1.3 2.3-.9l2.3-2.7-.2 4.2c-.1 2.2-.7 4.8-1.4 5.5-.8 1.1-.9 2-.1 3.3 1 1.7 1 1.7 1.1 0 0-.9.5-1.7 1-1.7.6 0 1 .9 1 2 0 1.5-.7 2-2.7 2-3.5.1-6.3 2.1-6.3 4.6.1 1.8.1 1.8 1.1.1 1.2-2 3.1-1.3 2.2.8-.3.8-1.4 1.5-2.4 1.5-1.4 0-1.9-.7-1.9-2.5 0-1.4-.4-2.5-1-2.5-.5 0-1 .9-1 1.9 0 3-1.9 3.5-4 1.1l-1.8-2.1-.7 2.2c-.6 1.7-.9 1.9-1.7.8-.7-1-.8-.8-.5.8.5 2.4 0 2.8-2.1 1.4-.9-.5-1.1-1.7-.6-3.7 1-4 5.4-12.4 6.5-12.4 1 0 .2 4.3-1.3 7.2-.6 1.3-.5 1.8.7 1.8.8 0 1.5-.9 1.5-2.1 0-1.1.5-1.7 1-1.4.6.3 1 1.8 1 3.3 0 2 .3 2.3.9 1.2.6-.8.7-1.8.5-2.2-.3-.4.3-.8 1.3-.8 1.7-.1 1.7-.1.1-1.1-1-.5-1.8-1.4-1.8-1.9s.8-.6 1.8-.3c1.4.6 1.5.4.5-.8-1-1.2-.8-1.7.8-2.7 1-.7 1.9-2.2 1.8-3.5 0-1.2-.3-1.6-.6-1-.2.7-1.2 1.3-2 1.3-1.4 0-1.4-.2.1-1.9 1.6-1.7 1.6-2 0-3.5-1.5-1.6-1.3-1.9 2.2-5.3 2.1-1.9 5.1-4 6.6-4.5 1.5-.6 2.8-1.4 2.8-2 0-.5-.4-.6-1-.3-.5.3-1-.2-1-1.1 0-1 .3-1.4.7-1.1.3.4 1.2-.2 2-1.3 1.7-2.4 4.6-2.6 6.3-.5zm-21.6 2c2.1 1.6 2.1 1.7-.9 3.3-1.6.8-2.9.7-5.5-.6-2.8-1.4-3.1-1.7-1.5-2.1 1-.2 2.1.2 2.3.8.2.6.8 1.1 1.3 1.1.6 0 .7-.5.4-1-.7-1.1.2-3 1.3-3 .4 0 1.6.7 2.6 1.5zm5.6 2.5c0 .6-1.1 1.5-2.5 2-3 1.1-3.4 2.4-.5 1.5 1.5-.5 1.8-.3 1.4.8-.5 1.4-4.4 3.1-5.2 2.3-.1-.2 0-1.5.3-2.9.8-3 6.5-6.3 6.5-3.7zm-21.8 1.7c-.6.3-.9 1-.6 1.5.4.7.2.8-.4.4-.7-.4-1.2-.2-1.2.4 0 .6-.4.8-1 .5-.5-.3-1-1-1-1.4 0-1 4.3-3 5-2.3.3.2-.1.7-.8.9zm10 1.7c1.3 1.8.9 2.6-1.2 2.6-1.1 0-2.3 0-2.7.1-.4 0-.9-.5-1.1-1.1-.3-.8.3-1 1.7-.5 1.1.3 2.1.2 2.1-.3s-1.1-1.2-2.5-1.4c-1.9-.4-2.5-.1-2.5 1.3 0 2.2-1.6 3.3-2.6 1.8-.3-.6 0-1.5.7-2 .8-.5 1-.9.6-.9-.5 0-.5-.4-.2-1 .7-1.2 6.7-.1 7.7 1.4zm24.5 1.3c-.2 1.5-.9 2.9-1.5 3.1-1.3.4-1.4-.3-.6-3.6.9-3.1 2.5-2.8 2.1.5zm-51.3.9c2.1 2 2 2.4-.5 2.4-1.1 0-1.7-.5-1.4-1 .3-.6-.1-1-.9-1-.9 0-1.6-.5-1.6-1 0-1.5 2.7-1.2 4.4.6zm25.6 2.9c-1.4.8-1.9 1.4-1.1 1.5.8 0 1.2.3.8.6-.3.3-1.5-.1-2.7-.9-2-1.4-2.1-1.6-.3-2 1-.3 2.7-.5 3.8-.5 1.7-.1 1.7.1-.5 1.3zm-20.3 2.8c1.8 1.1.7 2.7-1.9 2.7-1.4 0-1.8-.5-1.4-1.6.3-.9.6-2.3.7-3.2 0-1.4.2-1.4.6-.2.3.8 1.2 1.9 2 2.3zM323 210c0 1.4-1.7 1.3-2.7-.3-1-1.5-4.5-1.9-4-.3.3.6 1 1 1.6.8.7-.1 1.1 1 .9 3.1-.1 1.8.1 3.7.4 4.3.4.5-.2 1.5-1.2 2.2-2.9 1.8-4.2-.8-3.8-7 .4-4.8.7-5.3 2.9-5.3 1.6 0 2.3-.5 2.1-1.5-.2-1 .4-.7 1.7.7 1.2 1.2 2.1 2.7 2.1 3.3zm7-2c0 .5-.7 1-1.5 1s-1.5.4-1.5 1c0 .5.9 1 2 1 1.5 0 2 .7 2 2.6 0 1.4-.3 2.3-.7 2.1-.5-.3-.9.8-.9 2.5-.1 1.7-.6 3.3-1.2 3.7-.6.3-1.5 1.8-2.1 3.3-.9 2.3-1.5 2.6-4.7 2.4-4.4-.4-5.8-2.2-3.6-4.7 1.9-2.2 3.2-2.4 3.2-.5 0 1.7 2.7 2.9 3.5 1.6.4-.6-.1-1-.9-1-2 0-2.1-1.6-.3-2.7 1.6-.9 2.9-5.3 1.6-5.3-.5 0-.9.4-.9 1 0 .5-.4 1-1 1-1.6 0-1.1-2.3.9-4.9 1-1.4 1.7-3.1 1.4-3.8-.3-.9.4-1.3 2.1-1.3 1.4 0 2.6.4 2.6 1zm23.4.6c.3.8.2 1.2-.4.9-.6-.3-1-1-1-1.6 0-1.4.7-1.1 1.4.7zm15.6 1.9c0 .9-.6 1.2-1.5.9-.8-.4-1.5-1-1.5-1.5s.7-.9 1.5-.9 1.5.7 1.5 1.5zm31.2 3.7c-.7.7-1.2.8-1.2.2 0-1.4 1.2-2.6 1.9-1.9.2.3-.1 1.1-.7 1.7zm-20.2 5.2c0 .3-.4.8-1 1.1-.5.3-1 .1-1-.4 0-.6.5-1.1 1-1.1.6 0 1 .2 1 .4zm-2.5 4.5c.3.5.1 1.2-.5 1.6-.5.3-1-.1-1-.9 0-1.8.6-2.1 1.5-.7zm-26.5 1.5c0 .7-.9 1.6-2 1.9-1.3.3-2 0-2-.8s.8-1.6 1.8-1.8c.9-.3 1.8-.5 2-.6.1 0 .2.5.2 1.3zm36.4 1.3c-1.5 1.2-2.8 2.3-2.8 2.3-.1 0-.1-1.1-.1-2.4 0-2 .5-2.4 2.8-2.4l2.8.1-2.7 2.4zm-53.2 6.9c-.3 1.9-.1 2.5.7 2 .6-.4 1.1-1.5 1.1-2.4 0-1.1.9-1.8 2.4-2 2.7-.2 4.4 2.6 2.1 3.4-.8.4-1.5 1.2-1.5 1.9s-.9 1.5-2 1.8c-1.1.3-2 0-2-.5 0-.7-.5-.6-1.3.1-1.5 1.2-2.8.5-2.2-1.2.2-.7.6-2.5.9-4 .8-3.5 2.5-2.7 1.8.9zm10.6-.9c-.7.9-.7 1.3.1 1.3 1.4 0 1.5 6.5.1 9.1-.6 1-2 1.9-3.2 1.9-1.7 0-1.8-.2-.8-1.5 1-1.2 1-1.5-.4-1.5-.9 0-1.6-.7-1.6-1.6 0-1 .6-1.3 1.9-.9 1.4.4 2-.1 2.4-2.2.3-1.5.1-3.5-.4-4.5-.7-1.3-.5-1.6 1-1.5 1.5.1 1.7.4.9 1.4zm5.6 1.8c-.4.8-1 1.2-1.5.9-1.1-.6-.2-2.4 1.1-2.4.5 0 .7.7.4 1.5zm48.9 5.4c-.4 1.6-.8 1.9-1.4 1-.4-.7-.3-1.9.3-2.6 1.4-1.8 1.9-1.2 1.1 1.6zm2.8 4.8c-.8 1.5-1 1.5-1.1.2 0-1.7 1-3.2 1.8-2.5.2.3-.1 1.3-.7 2.3zm-68.1-.1c0 .8-.4 1.2-1 .9-.5-.3-1-1-1-1.6 0-.5.5-.9 1-.9.6 0 1 .7 1 1.6zm9.4 3.9c-.4.8-1 1.5-1.5 1.5s-.9-.7-.9-1.5.7-1.5 1.5-1.5c.9 0 1.2.6.9 1.5zm-15.1 2.8c.3.8-.4 1.4-1.9 1.5-1.3.1-2.4-.3-2.4-.9 0-.6.7-.9 1.5-.5.8.3 1.5.1 1.5-.4 0-1.4.7-1.2 1.3.3zm11.7-.3c0 .5-.2 1-.4 1-.3 0-.8-.5-1.1-1-.3-.6-.1-1 .4-1 .6 0 1.1.4 1.1 1zm-13.6 18.5c-.5 3-.9 3.4-1.6 2.1-1.2-2.1 0-8.2 1.4-6.8.5.5.6 2.6.2 4.7zm83.1 2.4c.3.5.1 1.2-.5 1.6-.5.3-1-.1-1-.9 0-1.8.6-2.1 1.5-.7zm45.6 5.8c-.5 1-1.5 3.2-2.2 4.9-.7 1.7-2.1 3.7-3.1 4.3-1.6 1-1.8.8-1.8-1.3 0-1.4 1-3.3 2.3-4.3 1.3-1 2.6-2.6 3-3.6.3-.9 1.1-1.7 1.7-1.7.7 0 .7.6.1 1.7zM414 284c0 .5-.5 1-1.1 1-.5 0-.7-.5-.4-1 .3-.6.8-1 1.1-1 .2 0 .4.4.4 1zm27.2 5.6c-.2 1.4-1.1 2.8-1.9 3.1-1.8.7-2.7-.2-1.7-1.9.9-1.4 1.1-1.9 1.3-4.4.1-1.3.4-1.4 1.5-.5.8.6 1.1 2.2.8 3.7zm-7.7 5.4c-1.1.5-2.7.9-3.5.9-.9 0-.8-.4.5-.9 1.1-.5 2.7-.9 3.5-.9.9 0 .8.4-.5.9zm-284.8 6.4c-.2.6-.9 1.1-1.5 1-.7-.1-2.1-.2-3.2-.3-1.1 0-2-.6-2-1.2s.7-.9 1.5-.6c.8.4 1.7.2 2-.3.8-1.3 3.7 0 3.2 1.4zm172.3-.9c0 .8-.4 1.5-1 1.5-.5 0-1-.7-1-1.5s.5-1.5 1-1.5c.6 0 1 .7 1 1.5zm112.3.2c-.7.2-1.9.2-2.5 0-.7-.3-.2-.5 1.2-.5s1.9.2 1.3.5zm-123.7 10.5c-.3 1.3-.6 3.5-.6 5 0 1.6-.4 2.8-1 2.8-.5 0-1-1.6-1-3.5s.4-3.5 1-3.5c.5 0 .7-.7.4-1.5-.4-.8-.1-1.5.6-1.5.8 0 1 .8.6 2.2zm1.1 4c-.3.8-.6.5-.6-.6-.1-1.1.2-1.7.5-1.3.3.3.4 1.2.1 1.9zm-9.8 3c0 3.1-.1 3.1-1 1-.5-1.3-.7-2.8-.3-3.3 1-1.6 1.4-.9 1.3 2.3zm-63.2 12.6c1.8.6 5.2 2.4 7.6 4 2.3 1.7 5.4 3.2 6.7 3.4 2 .2 2.5.9 2.5 3.1 0 3.3 3.4 5.6 7.1 4.9 2.2-.4 2.4-.1 2.4 3.4.1 4.8 1.9 7.4 5.2 7.4 3.4 0 5.5 1.9 6.3 5.7.5 2.6.2 3.4-1.4 4.5-3 1.8-2.6 2.4 1.5 2.4 4.2 0 5.4 1.5 5.4 6.7 0 5.1-2.5 6.1-5.7 2.1-1.2-1.6-2.1-3.4-1.9-4 .2-.6 0-1.7-.4-2.5-.7-1.1-1-1-1.6.4-.8 2.3-5.8 4.9-7.8 4.1-1.9-.7-1.9-1.2-.1-4.4 1.7-3.2.9-7.4-2.4-12.3-2.3-3.4-3-3.7-5.9-3.3-3 .4-3.5.2-4.4-2.5-.7-2.1-1.6-2.9-3.3-2.9-3.6 0-6.7-1.5-10.4-4.9-3.5-3.2-5.6-3.7-10.7-2.2-4.1 1.2-5.5-1-4.4-6.7.9-4.9 4.4-8.4 7.8-7.7 1.3.3 2.2.1 2.2-.6 0-.8.4-.8 1.3-.2.6.6 2.7 1.5 4.4 2.1zm-28.8 12.6c3.3 4.7 5.7 11.8 4.6 13.6-.7 1.1-7.2-2.1-10.3-5-1.2-1.1-3-2-4.2-2-1.2 0-2-.7-2-1.8 0-1.4-.2-1.5-1-.2s-1 1.2-1-.3c0-.9-.7-1.7-1.6-1.7-1.2 0-1.5-.7-1.2-2.5.4-1.9.1-2.5-1.3-2.5-1.7 0-1.7-.3-.7-2 .9-1.3 2.2-1.9 4.3-1.7 2 .1 2.9-.2 2.8-1.1-.2-.6.4-1.2 1.2-1.2.8 0 2-.9 2.7-2 1.2-1.8 1.3-1.7 2.8 1.8.8 2.1 3 5.9 4.9 8.6zm92.6-5.3c.4 1.1.4 2.3.1 2.6-1 1-3.3-.5-3.9-2.6-.7-2.9 2.9-2.9 3.8 0z"/><path d="M343.6 206.3c.3 1 .9 1.5 1.2 1.2.3-.3 0-1.1-.7-1.8-1-.9-1.1-.8-.5.6zM342 223.1c0 .5.5.7 1 .4.6-.3 1-.8 1-1.1 0-.2-.4-.4-1-.4-.5 0-1 .5-1 1.1zM250 341.7c0 2.3 1.5 3.9 2.4 2.5.3-.5-.1-1.8-.9-2.8-1.4-1.8-1.4-1.8-1.5.3zM129.8.7c3 .6 7 4.3 4.6 4.3-.8 0-1.2.4-.9 1 .3.5 2.3 1 4.3 1 4 0 7.6 1.8 5.5 2.7-1.9.7-1.6 2 .7 2.6 1.1.3 2 1.2 2 2.1 0 1.4 1.9 2.1 4.4 1.7.5-.1 4.3.6 8.5 1.6 7.2 1.6 7.4 1.8 4.1 2.4-1.9.3-2.8.7-2 .8 1.3.1 1.3.2 0 1.1-1.2.8-1 1 1 1 1.4 0 3.6-.7 4.8-1.6 1.7-1.1 3.4-1.4 6-.9 2 .3 5.6.8 7.8 1 2.3.1 6.3 1.2 8.9 2.4 2.7 1.2 5 1.9 5.3 1.7.2-.3-1.3-1.2-3.3-2.1-4.3-1.7-4.3-1.9 0-2.9 1.9-.4 2.5-.3 1.7.2-1 .7-.3 1.1 2.5 1.6 2.2.5 4.7 1.8 6.1 3.3 1.2 1.5 2.2 2.1 2.2 1.5 0-.6-.5-1.4-1-1.7-.6-.4-.8-1.1-.4-1.6.4-.6 1.6-.2 2.9 1.1 1.8 1.7 3.3 2.1 6.4 1.8 2.7-.2 4.2.1 4.5.9.3.7 1 1.3 1.6 1.3.6 0 1.8.7 2.6 1.5.9.8 2.3 1.5 3.2 1.5 1.5-.1 1.4-.3-.3-1.6-1.9-1.5-1.8-1.6 1.5-.9 4.6.9 10.8 3 14.5 4.8 6.6 3.3 8.3 3.9 10.2 3.3 1-.3 3.5.3 5.6 1.4 4.5 2.4 4.8 2.4 4 .4-.3-.9-1.2-1.3-2.2-.9-1.2.5-1.3.3-.5-.5.9-.9 2.1-.6 4.9.9 3.9 2.1 3.7 2.6-1.5 3.4-1.5.3-.9.5 1.7.6 2.3 0 4.3-.3 4.5-.8.2-.5.9-.3 1.6.5 1.1 1.2.8 1.4-1.5 1.5-1.5 0-2.2.3-1.5.6.6.2 1 .9.6 1.4-.7 1.2 2 1.1 3.2-.1 1.4-1.4 4.4-.2 3.8 1.4-.3.7.2 1.9 1.1 2.6 1.9 1.6 2 5.6 0 6.4-1.7.6-2-.5-.5-2 1.2-1.2.3-4.4-1.3-4.4-.7 0-.7.4.1 1.2.7.7 1.2 1.6 1.2 2 0 1.1-2.8 1-3.2-.2-.2-.6-1.8-.6-4.3 0-2.2.5-4.8.7-5.7.4-1-.3-1.8-.1-1.8.4s2.6 1.7 5.8 2.8c3.1 1 6.7 3 8 4.4l2.3 2.5-.3-2.4c-.2-1.9.3-2.6 2.5-3.3 2.3-.8 3-.6 4.6 1.3 1 1.3 1.6 3 1.3 3.8-.3.9-.1 1.2.7.7 1.4-.9 5.1 3.3 4.4 5-.2.6.3 1.4 1.1 1.7 1.9.7 2.2 4.7.4 4.6-2.1-.1-9.4-3.7-7.8-3.9 1.2 0 1-.5-.5-1.8-1.2-.9-2.4-2.5-2.8-3.5-.3-.9-1.4-1.7-2.4-1.7-1.1 0-1.4.3-.7.8 1.4.9 2.6 4.2 1.5 4.2-1.3 0-5.2-4.6-4.4-5.3 1.1-1.2-1.1-.7-3.7.8l-2.5 1.5 2.8-.6c2.2-.5 2.9-.3 3.3 1.2.5 2 7.4 7.4 9.3 7.4.6 0 1.3 1.1 1.7 2.5.5 2 .9 2.3 1.9 1.5 1.1-.9 1.2-.7.8.8-.8 3.1-9.9 7.2-16.1 7.2-3.3 0-5.9-.6-6.8-1.4-.7-.8-2.2-1.2-3.2-.9-1.3.3-3.9-1.5-8.5-5.9-3.7-3.5-6.9-5.9-7.2-5.3-.3.5-.3.1 0-1.1.3-1.2-.1-2.7-1-3.4-.8-.7-1.5-1.8-1.5-2.5s-.7-1.9-1.6-2.6c-1.5-1.2-1.6-1.1-1 .9 1.8 6.4 1.7 6.6-.9 2.9-1.4-2.1-2.8-4.7-3-5.8-.2-1.1-1.3-2.8-2.5-3.7-1.1-.9-2.7-3.9-3.5-6.5-1.3-4.2-1.2-4.9 0-5.4 1.2-.4 1-.9-.8-2.3-1.2-1-2.4-3.1-2.5-4.6-.3-3.4-2.2-5.8-2.2-2.8 0 1.1.5 2.5 1.2 3.2 1.5 1.5 0 1.6-3.7.2-1.5-.6-2.5-.7-2.3-.3l1.8 4.5c.8 2.1 1.8 3.8 2.2 3.8.4 0 .8.8.8 1.7 0 1.5-.2 1.6-1 .3-1.6-2.6-1.9-.6-.5 4.7 1.6 6.1 6.3 14.6 7.6 13.7.5-.3.9.4.9 1.5 0 4 8.9 11.7 18.7 16.2 6 2.8 8.9 4.6 8 5.1-.7.4.7.8 3.3.8 4.8.1 8 1.8 8 4.3 0 2.4 3.1 3.8 4.8 2.1.7-.8 3.3-1.4 5.6-1.4 2.6 0 4.8-.6 5.6-1.5.7-.8 1.6-1.3 2-1 .5.3 1.1.1 1.5-.5.3-.5.1-1-.5-1-2.2 0-.4-4.2 2.5-5.8 1.7-.9 3.2-1.8 3.4-2 .3-.1 0-.7-.5-1.2-.6-.6-2.1 0-4 1.8-1.7 1.5-3.6 2.6-4.3 2.4-.8-.3-1 .4-.6 2 .3 1.2.2 2.8-.2 3.4-1.1 1.5-12 2.7-12.8 1.3-.8-1.3 1.4-7.1 2.5-6.4 1 .6 9.1-2.6 11.2-4.5 5.6-5.1 6.7-5.1 10.2-.8 1.4 1.8 2.6 2.7 2.6 2 0-2.3 2-1.2 7.7 4.5 3.1 3.2 5.3 5 5 3.9-.6-1.5-.4-1.7 1-1.1 5 2.1 9.6 3.5 10.1 3.1.3-.3-.4-.9-1.4-1.2-3.4-1.2-13.4-7.7-13.4-8.6 0-.5.8-.7 1.8-.5 4.9 1.4 9.4 1.8 8.7.8-.3-.6.1-1.1.9-1.1.9 0 1.6.4 1.6 1 0 .5.5 1 1.1 1 .6 0 .8-.9.4-2-.4-1.4-.2-2 .9-2 .8 0 2.2-.3 3.2-.7 1.1-.4 1.5-.3 1 .5-.3.6-.2 1.3.3 1.6.5.4 1.2-.2 1.5-1.1.4-1 3.3-3.6 6.5-5.8 6.2-4.2 9.6-7.9 6.3-6.9-.9.3-.5-.2.9-1s3.2-3 3.9-4.8c2.6-7 3-7.8 4.2-7.8 1 0 .9-.3-.1-.9-1.2-.8-1.2-1.1.1-2.5.9-.8 1.8-1.2 2.2-.9.8.8 1.5-1.4 2-6.1.2-2.1.8-4.1 1.4-4.5 1.3-.8 5.2-9.6 5.2-11.7 0-2.1 4.9-1.8 5.7.3 1.5 4.8 4.6 10.3 7.3 13.3 5.1 5.7 7.5 12.2 5.3 14.4-.4.4-.8 1.5-.8 2.4 0 1.2-1.4 2-4.6 2.7l-4.6 1 2.8 2.2c1.5 1.3 3 2.3 3.3 2.3.4 0 1.7.9 2.9 2s2.7 1.8 3.3 1.6c.7-.3 1.4.1 1.7.8.7 1.7 7.6 3.6 11 2.9 3.6-.7 4.3-2.3 5.1-11.7.4-4.4 1.4-9.2 2.2-10.7.8-1.5 1.4-4.1 1.4-5.7 0-2.9 2.5-5.9 6.7-8.1 3.9-2 5.1-1.4 5.8 3.1 1.2 6.8 1.9 7.6 8.2 8.4 5.1.6 6.3 1.2 9.9 4.9 2.9 3 3.9 4.7 3.3 5.6-.5.8-.9 3.9-.9 7 0 8.4-2.8 19.6-5.7 22.7-1.6 1.8-2.3 3.4-2 5 .3 1.4-.1 2.6-.9 2.9-.8.3-1.4 1.2-1.4 2 0 .9-1.6 3.1-3.5 4.9-3.1 2.9-3.9 3.2-5.5 2.2-1.5-1-2.2-1-3.2 0-1.8 1.8-3.1 1.5-2.5-.7.7-2.7-2.1-3.6-4.4-1.5-2.2 2-2.5 3.5-.6 3.2.8-.2 1.1 1.2 1 4.7-.9 23.5-.4 27.5 4.8 37.8 1.6 3.2 2.6 5.6 2.1 5.3-1.6-1-9.5-13.1-10.8-16.6-.7-1.9-1.3-2.7-1.3-1.8-.1 1-.5 1.8-1 1.8-1.5 0 .8 9.3 4 15.8 5 10.2 14.2 15.9 24 15 2.7-.3 5-.2 5 .1.6 2.7.5 5.1-.2 5.1-.5 0-.9.7-.9 1.5s.7 1.5 1.5 1.5 1.5.4 1.5 1c0 .5 1.1 1 2.5 1 1.5 0 2.5.6 2.5 1.4 0 2.1 3.4 2.9 6.4 1.5 2-1 2.9-1 3.8-.1 1.7 1.7 3.8 1.5 3.8-.3 0-.8-.9-1.5-2.1-1.5-1.2 0-1.7-.4-1.4-1.1.4-.6 1.4-.8 2.2-.5.9.4 1.7-.1 2-1.4.3-1.3 1.4-2 2.9-2h2.4V0L293.8.1c-91.5.1-165.3.4-164 .6zM145 4c2.8 1.7.1 2.2-3.7.7l-3.8-1.6h3c1.7-.1 3.7.3 4.5.9zm5.3 3.7c-.7.2-2.1.2-3 0-1-.3-.4-.5 1.2-.5 1.7 0 2.4.2 1.8.5zm18.4 9.9c-.3.3-1.2.4-1.9.1-.8-.3-.5-.6.6-.6 1.1-.1 1.7.2 1.3.5zm31.8 2.4c.3.6-.1.7-.9.4-1.8-.7-2.1-1.4-.7-1.4.6 0 1.3.4 1.6 1zm13.9 4.5c-.7 1.6-4.4 2.1-4.4.6 0-.8 1.6-1.6 4.2-2 .4 0 .5.6.2 1.4zm13 3.4c-.7.7-4.4-3.1-3.8-4.1.3-.4 1.4.2 2.4 1.4 1 1.3 1.6 2.5 1.4 2.7zm8.2-1.2c3.5.9 6.4 2.1 6.4 2.5 0 .4.7.4 1.7.1 1.1-.4 1.4-.3.9.5-1.2 2-7.1 1.4-9.1-.8-1-1.1-2.8-2-4.1-2-1.3 0-2.6-.5-2.9-1-.8-1.3-.4-1.3 7.1.7zM220 27c0 .5-.2 1-.4 1-.3 0-.8-.5-1.1-1-.3-.6-.1-1 .4-1 .6 0 1.1.4 1.1 1zm106.9.9c.9.6 1 1 .2 1.6-1.5.8-4.1-.1-4.1-1.5 0-1.2 2-1.3 3.9-.1zm31.3 4.3c-1.3 1.3-3.2.1-3.1-2 0-1.4.2-1.3.9.3.8 2 .9 2 .9-.1.1-3 1.5-4 1.9-1.4.2 1.2-.1 2.7-.6 3.2zM317 32c.8.5 1.1 1 .5 1-.5 0-1.7-.5-2.5-1s-1-1-.5-1c.6 0 1.7.5 2.5 1zm7.7 1.6c-.3.3-1.2.4-1.9.1-.8-.3-.5-.6.6-.6 1.1-.1 1.7.2 1.3.5zm-4.3 5.5c.5.5-.6.4-2.5-.1-1.8-.6-4.1-1-4.9-1-1.3 0-1.3.1 0 1 1.9 1.1.8 2.3-1.4 1.4-1.3-.5-1.4-.9-.4-2.1 1.2-1.5 7.4-1 9.2.8zm10.1 2.9c-.3.5-1.8 1-3.3.9l-2.7-.1 2.5-.8c3.5-1.1 4.2-1.1 3.5 0zm-6.5 1.6c0 1.6-2.6 1.9-3.5.4-.5-.8-1.1-.8-2 0-.7.6-2.1.7-3.1.3-1.7-.6-1.6-.8.6-1.3 4.7-1.2 8-.9 8 .6zm-29 3.8c0 .3-.4.8-1 1.1-.5.3-1 .1-1-.4 0-.6.5-1.1 1-1.1.6 0 1 .2 1 .4zm45.4 4.3c.3.8.4 1.9 0 2.4-1.2 1.9 1.6.8 3-1.3 1.3-1.8 1.6-1.9 2.1-.6.7 1.8-1.2 9.6-2.7 11.5-.5.7-.6 1.8-.2 2.4.4.7.3.9-.4.5-.6-.3-2.6.6-4.4 2.2-7.1 6-12.4 8-16 6.1-1.7-.9-2.4-.8-3.3.5-.7.8-1.4 1.3-1.7 1-.6-.5-4.6-1.2-8-1.3-1-.1-1.7-.6-1.5-1.3.1-.7-.5-1.3-1.3-1.4-.8 0-1.8-.2-2.2-.4-1-.3-2.5-.7-3.6-.9-1.5-.2-5.2-4.2-5.1-5.4 0-.9.2-.9.6.1.2.7 1.2 1.6 2.2 2.1 2 1.1 2.5-.8 2.5-10.7.1-3.4.2-6.2.4-6.2s3.7.7 7.9 1.6c4.1.8 8.3 1.2 9.2.8.9-.4 3.2-.7 5.1-.6 1.9 0 4-.4 4.7-1 .7-.5 2.8-1 4.8-1.1 1.9-.1 3.5-.4 3.5-.8 0-1.3 3.8.3 4.4 1.8zM291.6 53c2.4.1 7.1 7.4 5.5 8.5-.5.3-1.2-.2-1.5-1.1-.4-.9-.9-1.4-1.3-1.1-.3.4-1.2.2-2-.4-1-.9-1.3-.8-1.3.4 0 .8.7 1.7 1.5 2.1.8.3 1.5 1.2 1.5 2.1 0 2-.5 1.9-3.5-.9-1.9-1.8-2.7-3.7-3-6.8-.3-5.2.4-6.7 2-4.5.7 1 1.6 1.7 2.1 1.7zm4.4-.9c0 .6-.4.7-1 .4-.5-.3-1-1.1-1-1.6 0-.6.5-.7 1-.4.6.3 1 1.1 1 1.6zm-64.8 10.1c.7.4 1 .8.5.8-1.2 0 2.3 6.3 4.9 8.7 1.3 1.2 2.4 1.9 2.4 1.5 0-.3 1.7.9 3.8 2.8 3.5 3.3 5.5 4.6 11.2 7.7 1.4.7 1.8 1.3 1 1.3s-2.8-.9-4.4-1.9c-1.6-1.1-3.6-1.7-4.4-1.4-.8.4-2.1-.2-2.8-1.2-.8-1-1.4-1.6-1.4-1.2 0 .5-.6.3-1.2-.2-.7-.6-2.8-2.2-4.5-3.7-1.8-1.4-3.3-3.1-3.3-3.6 0-.6-1.2-2.6-2.6-4.5-2.5-3.4-5.6-9.7-6.9-14.3-.4-1.4.8-.2 2.9 2.9 1.9 3 4.1 5.8 4.8 6.3zm67.8-8.1c0 .6-.4.7-1 .4-.5-.3-1-1.1-1-1.6 0-.6.5-.7 1-.4.6.3 1 1.1 1 1.6zm-30 .8c0 .5-1.3.9-3 .9-1.6-.1-3-.5-3-1 0-.4 1.4-.8 3-.8 1.7 0 3 .4 3 .9zm30 9.2c0 1.5-1.8 1.9-2.3.6-.3-.8.1-1.4.9-1.4s1.4.4 1.4.8zm40 7.3c0 .2-1.9 1.5-4.2 3l-4.3 2.7 3.5-3c3.2-2.7 5-3.8 5-2.7zm-33.3 5.2c-.3.3-1.2.4-1.9.1-.8-.3-.5-.6.6-.6 1.1-.1 1.7.2 1.3.5zm11.1 1.9c.2.2-1.1.5-2.7.7-1.6.2-2.8.1-2.5-.3.2-.4-.2-1-.8-1.2-.7-.3.3-.3 2.2 0 1.9.3 3.6.7 3.8.8zm7.7 1.5c-.3.5-1.6 1-2.8 1-1.8 0-1.9-.2-.7-1 2-1.3 4.3-1.3 3.5 0zm119.4 63.2c.1 2.1-.3 3.8-.9 3.8-.6 0-1-2.7-.9-6.3.1-4.6.3-5.6.9-3.7.4 1.4.8 4.2.9 6.2zm-28.6 4.8c.3 1.1.1 1.8-.4 1.4-.5-.3-.9-1.2-.9-2 0-2 .7-1.7 1.3.6zm7.4 5.4c-1.3 1-1.5 1.6-.7 2.1.7.4 1.7.2 2.3-.4 1.3-1.3 4.7-1.5 4.7-.2 0 .6-.5 1.3-1 1.6-.8.5-.7 1.1.1 2.1.6.8.9 1.7.5 2.1-.8.8-5.1-1.5-8.4-4.6-2.5-2.3-2.6-2.5-.7-3.2 1.1-.4 2.7-.8 3.5-.8 1.2 0 1.1.3-.3 1.3zM444 182c-2 1.3-3.3 1.3-2.5 0 .3-.6 1.4-1 2.3-1 1.5 0 1.5.2.2 1z"/><path d="M321.5 70.9c-.6.5-3 1.4-5.5 2l-4.5 1.1 5-.5c2.7-.3 5.6-1.2 6.4-2 1.6-1.6.2-2.1-1.4-.6zM196 24.6c0 .1.6.7 1.4 1.3 1 .9 1.5.8 1.9-.2.3-.8-.3-1.3-1.4-1.3-1.1 0-1.9.1-1.9.2zM199.5 29c.3.5.8 1 1.1 1 .2 0 .4-.5.4-1 0-.6-.5-1-1.1-1-.5 0-.7.4-.4 1zM215.5 32.1c-1.1 1.6-.1 1.9 1.3.3.7-.8.8-1.4.3-1.4s-1.3.5-1.6 1.1zM228 32.9c0 .5.5 1.3 1 1.6.6.3 1 .2 1-.4 0-.5-.4-1.3-1-1.6-.5-.3-1-.2-1 .4zM221.1 36.6c0 1.1.3 1.4.6.6.3-.7.2-1.6-.1-1.9-.3-.4-.6.2-.5 1.3zM230 37c0 .5.5 1 1.1 1 .5 0 .7-.5.4-1-.3-.6-.8-1-1.1-1-.2 0-.4.4-.4 1zM241 40.1c0 .5.5.7 1 .4.6-.3 1-.8 1-1.1 0-.2-.4-.4-1-.4-.5 0-1 .5-1 1.1zM246 39.9c0 .9 5.1 3.4 5.7 2.7.2-.2-1-1.1-2.6-1.9-1.7-.9-3.1-1.2-3.1-.8zM254 42.4c0 .2.7.6 1.5 1 .8.3 1.5.1 1.5-.4 0-.6-.7-1-1.5-1s-1.5.2-1.5.4zM259.7 48.3c-2.2.7-3.6 1.5-3.3 1.8 1.1 1 6.5-.3 7-1.7.3-.8.4-1.4.3-1.3-.1 0-1.9.6-4 1.2zM359 54.1c0 1.6.4 2.8.9 2.5.8-.5.3-5.6-.5-5.6-.2 0-.4 1.4-.4 3.1zM362.9 57.2c0 .7-.2 2.8-.3 4.5-.4 3.3.1 3.8 2.7 2.7 1.2-.4 1.3-1.2.6-3.6-.4-1.7-.6-3.5-.3-3.9.3-.5-.2-.9-1-.9-.9 0-1.6.6-1.7 1.2zM266.8 60.7c.7.3 1.6.2 1.9-.1.4-.3-.2-.6-1.3-.5-1.1 0-1.4.3-.6.6zM354 61.9c0 2.5 1.5 3.5 3.6 2.3 1.3-.7 1.2-1.1-1-2.6-2.5-1.6-2.6-1.6-2.6.3zM280.7 76.7c-.4.3-.7 1.1-.7 1.7 0 .6.5.5 1.2-.2.6-.6.9-1.4.7-1.7-.3-.3-.9-.2-1.2.2zM279.8 87.7c.7.3 1.6.2 1.9-.1.4-.3-.2-.6-1.3-.5-1.1 0-1.4.3-.6.6zM297.3 89.2c-.1 1 .5 1.8 1.3 1.8s1.4.5 1.4 1.1c0 .5.5.7 1.1.3.8-.5.7-.9-.1-1.4-.7-.4-1.1-1.4-.8-2.2.4-.8-.1-1.4-1.1-1.4-.9 0-1.8.8-1.8 1.8zM290 90.8c0 .5 1.4 1.2 3 1.4 1.7.3 3 .1 3-.4 0-.4-.6-.8-1.4-.8-.8 0-2.1-.3-3-.6-.9-.3-1.6-.2-1.6.4zM288.7 94.4c-.4 1-.5 2.1-.2 2.4.9.9 1.7-.6 1.3-2.5-.3-1.7-.4-1.7-1.1.1zM324 94.1c0 .5 1.1 1.1 2.5 1.5 3.4.8 5.1 4 3.3 6.2-1.2 1.5-1.1 1.6.5.3 1.5-1.2 2.1-1.1 4.2.9 1.4 1.3 2.5 1.8 2.5 1.2 0-.7-.4-1.2-1-1.2-.5 0-1-.7-1-1.5 0-.9-.7-1.8-1.5-2.1-1.4-.6-1.3-.8.2-2 1.6-1.3 1.5-1.4-.9-.8-1.6.3-2.8.2-2.8-.3s-1.3-1.4-3-2c-1.6-.6-3-.7-3-.2zM298 98c0 .5.5 1 1.1 1 .5 0 .7-.5.4-1-.3-.6-.8-1-1.1-1-.2 0-.4.4-.4 1zM315 99.8c0 .8 6.1 3.4 6.7 2.8.4-.3-5.4-3.6-6.4-3.6-.1 0-.3.4-.3.8zM272 102.3c0 1.6.7 2.6 2 3 1.5.4 2 1.4 2 3.6 0 1.7.4 3.1 1 3.1.5 0 .7-.8.4-1.8-.5-1.4-.4-1.4.4-.2.6.8.9 1.7.6 2.1-.2.4.3 1.3 1.2 2 .8.7 2.4 3 3.5 5.1 2.4 4.7 3.6 4.9 3.1.3-.2-1.9-.8-3.2-1.3-2.9-.5.3-1.2-.3-1.6-1.3-.4-1-1.5-2.7-2.5-3.7-1-1.1-1.8-2.8-1.8-3.8s-.5-1.8-1.1-1.8c-.5 0-.7-.5-.4-1 .4-.6.1-.9-.7-.8-.7.2-1.2-.5-1.1-1.5 0-1-.2-1.6-.5-1.3-.3.3-1.1.1-1.9-.5-1-.9-1.3-.6-1.3 1.4zM320.6 109.6c-.4 1-.1 1.4.6 1.2 1.5-.5 2.3-2.8 1-2.8-.5 0-1.3.7-1.6 1.6zM326 116.4c0 .2.8 1 1.8 1.7 1.5 1.3 1.6 1.2.3-.4s-2.1-2.1-2.1-1.3zM389.5 118.7c.4 1 1 2.6 1.2 3.5.3 1 .9 1.8 1.4 1.8.5 0 .9.5.9 1.1 0 .6.6 1.7 1.4 2.4 1.2 1.2 1.5.9 2.1-2.2.6-3.2.3-3.9-2.2-5.9-3.4-2.8-5.8-3.1-4.8-.7zM364.1 124.6c0 1.1.3 1.4.6.6.3-.7.2-1.6-.1-1.9-.3-.4-.6.2-.5 1.3zM285.8 124.7c-.2.4.4 2.4 1.4 4.3 1 1.9 1.9 3.3 1.9 3 .8-2.8.3-5.2-1.1-6.5-1-.9-2-1.3-2.2-.8zM341.6 129.5c.9 1.4 1.9 2.4 2.1 2.1.7-.7-1.6-4.6-2.8-4.6-.5 0-.2 1.1.7 2.5zM344.1 135.6c0 1.1.3 1.4.6.6.3-.7.2-1.6-.1-1.9-.3-.4-.6.2-.5 1.3zM352.2 158.7c-.7.2-1.7 1.4-2.3 2.6-1.1 2.1-1 2 1.5-.2 1.4-1.4 2.6-2.6 2.6-2.8 0-.3 0-.3-1.8.4zM346 163.5c-.8.9-.8 1.5-.2 1.5 1.2 0 2.6-1.9 1.9-2.6-.2-.2-1 .2-1.7 1.1zM333 166.1c0 .5.5.7 1 .4.6-.3 1-.8 1-1.1 0-.2-.4-.4-1-.4-.5 0-1 .5-1 1.1zM358.9 173c-.3 5.7-.1 9 .7 9.9 1 1.1 1.2 0 1.3-5 0-3.5-.4-8-.8-9.9-.7-2.9-.9-2.1-1.2 5zM277.8 166.7c.7.3 1.6.2 1.9-.1.4-.3-.2-.6-1.3-.5-1.1 0-1.4.3-.6.6zM323.7 170.2c.1 2.4.3 4.5.4 4.8.4 1 1.5-6.6 1.1-7.8-.9-2.6-1.7-1-1.5 3zM344.5 170.6c-1.1.8-1.9 2.4-1.7 3.4.2 1.3-.2 2-1.2 2-.8 0-1.8.5-2.2 1.2-.5.7-.2.9.8.5.9-.3 2.1 0 2.7.6.8.8 1.1.7 1.1-.4 0-1.7 3.1-3.6 7-4.2 2.1-.4 2-.5-.7-.6-2.3-.1-3.2-.6-3.5-2-.3-1.8-.5-1.8-2.3-.5zM380 175.2c0 .4.4.8.9.8.6 0 1.2-.4 1.5-.8.3-.5-.1-.9-.9-.9s-1.5.4-1.5.9zM297.5 180.1c.7 1.1 3.5 1.2 3.5.1 0-.4-.9-.8-2-.9-1.1-.1-1.8.2-1.5.8zM457.2 180.9c-1.1.7-1 1 .3 1.5 2.3.9 2.5.8 2.5-.9 0-1.7-.9-1.9-2.8-.6zM280.2 184.5c-1 1.2-1 1.9 0 3.5.7 1.1 1.6 2 2.1 2 .4 0 .6.4.2.9-.3.5 0 1.3.6 1.6 1.8 1.2 1.9.1.3-3-.8-1.6-1.3-3.7-1.1-4.7.6-2.2-.3-2.3-2.1-.3zM340.7 183.7c-.4.3-.7 1.1-.7 1.7 0 .6.5.5 1.2-.2.6-.6.9-1.4.7-1.7-.3-.3-.9-.2-1.2.2zM377.7 183.7c-.4.3-.7 2-.6 3.7l.1 3.1.8-3.5c.9-3.6.8-4.5-.3-3.3zM458.5 187c.3 1.1.2 2-.3 2s-1.2 1.1-1.4 2.5c-.4 1.9-.1 2.5 1.3 2.5 1.6 0 1.9-.8 1.9-4.5 0-2.5-.5-4.5-1.1-4.5-.6 0-.8.9-.4 2zM392 186.9c0 .7-.4.9-1 .6-.5-.3-1 .1-1 .9 0 .9.4 1.6.9 1.6 1.1 0 2.4-3.1 1.6-3.8-.3-.3-.5 0-.5.7zM295 190.6c0 .8.5 1.2 1 .9.6-.4.8-1.1.5-1.6-.9-1.4-1.5-1.1-1.5.7zM369.4 193.6c-3 3.1-1.6 5 2.5 3.6 2.2-.8 3.1-.8 3.1 0 0 .7.5.6 1.5-.2 1.7-1.4.9-3.4-1.1-2.6-.7.3-1.9-.3-2.6-1.2-1.2-1.6-1.4-1.6-3.4.4zM407.5 198c-.3.5-.1 1 .4 1 .6 0 1.1-.5 1.1-1 0-.6-.2-1-.4-1-.3 0-.8.4-1.1 1zM286.8 198.7c.7.3 1.6.2 1.9-.1.4-.3-.2-.6-1.3-.5-1.1 0-1.4.3-.6.6zM290 199c0 .5.5 1 1 1 .6 0 1-.5 1-1 0-.6-.4-1-1-1-.5 0-1 .4-1 1zM403.6 209.9c-.4.7-.5 1.5-.2 1.8.9.9 1.9-.4 1.4-1.8-.4-1.1-.6-1.1-1.2 0zM304 216.4c0 .2.8 1 1.8 1.7 1.5 1.3 1.6 1.2.3-.4s-2.1-2.1-2.1-1.3zM458.5 223.9c-.3.5-.1 1.2.5 1.6.5.3 1-.1 1-.9 0-1.8-.6-2.1-1.5-.7zM300.5 226c.3.5 1.4 1 2.3 1 1.5 0 1.5-.2.2-1-2-1.3-3.3-1.3-2.5 0zM405 232c0 .5.5 1 1 1 .6 0 1-.5 1-1 0-.6-.4-1-1-1-.5 0-1 .4-1 1zM314.4 236c-2.5 1-4.2 3.2-2.2 2.8.7-.2 1.5-.6 1.8-.9.3-.3 1.4-1.1 2.5-1.7 2.3-1.3 1-1.5-2.1-.2zM438.7 247.7c-.4.3-.7 1.5-.7 2.7 0 2 0 2 1.5 0 .8-1 1.5-2.2 1.5-2.7 0-.9-1.4-.9-2.3 0zM458.7 255.5c-.4.8-.2 1.7.3 2 .6.4 1-.3 1-1.4 0-2.5-.6-2.7-1.3-.6zM455.6 261.6c-.4 1 .2 1.4 1.9 1.4 3 0 3.3-1.6.6-2.3-1.2-.3-2.2.1-2.5.9zM317 261.5s-.4 1.5-.9 3.3c-.5 1.7-.8 3.2-.6 3.2.1 0 1.4-1.5 2.9-3.4 2.4-3.2 2.5-3.5.6-3.3-1.1.1-2 .1-2 .2zM448.8 262.7c.7.3 1.6.2 1.9-.1.4-.3-.2-.6-1.3-.5-1.1 0-1.4.3-.6.6zM313.1 269.6c0 1.1.3 1.4.6.6.3-.7.2-1.6-.1-1.9-.3-.4-.6.2-.5 1.3zM445.4 270.6c-2 1.4-2.1 1.7-.7 4.5 1.6 3.2 3.3 3.8 3.3 1.1 0-.9.7-2.9 1.4-4.5 1.3-2.4 1.3-2.7-.2-2.6-.9 0-2.7.7-3.8 1.5zM440.1 272.6c-.1.7-1 1.4-2.2 1.7-2.9.8-1.8 3.3 1.2 2.9 3.2-.5 3.4-.8 2.1-3.4-.6-1.3-1.1-1.8-1.1-1.2zM428 277c0 .5.9 1 2 1s2-.5 2-1c0-.6-.9-1-2-1s-2 .4-2 1zM429.8 279.7c.7.3 1.6.2 1.9-.1.4-.3-.2-.6-1.3-.5-1.1 0-1.4.3-.6.6z"/></svg>